/* XPM */
static char *defcoin__[] = {
/* columns rows colors chars-per-pixel */
"16 16 216 2",
"   c #B94C06",
".  c #C15103",
"X  c #C05105",
"o  c #C85300",
"O  c #C35E11",
"+  c #C86207",
"@  c #C7660D",
"#  c #C96309",
"$  c #C9670B",
"%  c #D36603",
"&  c #D56503",
"*  c #D56806",
"=  c #DC6B01",
"-  c #D46D09",
";  c #DF760D",
":  c #C46416",
">  c #C66C13",
",  c #CD6D13",
"<  c #CD7816",
"1  c #C6711A",
"2  c #CB7218",
"3  c #C97418",
"4  c #CE7B18",
"5  c #CE7B1C",
"6  c #CD791E",
"7  c #CF7C1F",
"8  c #D37A17",
"9  c #D87D13",
"0  c #D67A19",
"q  c #D37F19",
"w  c #EA7E06",
"e  c #D78915",
"r  c #D68916",
"t  c #DE941F",
"y  c #DF991D",
"u  c #E3880F",
"i  c #F38B06",
"p  c #FC9804",
"a  c #E58410",
"s  c #E58516",
"d  c #E58C17",
"f  c #EF9A14",
"g  c #E69D19",
"h  c #F39C15",
"j  c #E7A21F",
"k  c #EEA81C",
"l  c #F6AF15",
"z  c #F9A811",
"x  c #F1A41F",
"c  c #F1AB1A",
"v  c #D18120",
"b  c #D18422",
"n  c #D68A24",
"m  c #D78F25",
"M  c #D78F26",
"N  c #D88D21",
"B  c #D98E22",
"V  c #D88F26",
"C  c #DE9122",
"Z  c #DC9322",
"A  c #DF9620",
"S  c #DD9829",
"D  c #DF9A28",
"F  c #DA9831",
"G  c #DE9A35",
"H  c #E99722",
"J  c #E69D22",
"K  c #E39C25",
"L  c #E69F25",
"P  c #E39E29",
"I  c #E09B2D",
"U  c #E29F36",
"Y  c #E7A125",
"T  c #E5A324",
"R  c #E8A123",
"E  c #E9A727",
"W  c #EDA424",
"Q  c #ECA725",
"!  c #ECA526",
"~  c #EFAE23",
"^  c #E9A62F",
"/  c #EDA929",
"(  c #EEA829",
")  c #F1A021",
"_  c #F3A723",
"`  c #F1A827",
"'  c #F2A826",
"]  c #F2AF26",
"[  c #F4AC27",
"{  c #EDB12A",
"}  c #F4B226",
"|  c #FCB120",
" . c #F6BC26",
".. c #F3B22A",
"X. c #F3B42A",
"o. c #F2B02F",
"O. c #F1B42C",
"+. c #F4B828",
"@. c #F3BD2C",
"#. c #F7BE2F",
"$. c #FCBD28",
"%. c #F8BC2C",
"&. c #EEAD31",
"*. c #EBAC34",
"=. c #E0A13A",
"-. c #EAAD3F",
";. c #EFB331",
":. c #ECB436",
">. c #EBBA32",
",. c #EBB73D",
"<. c #F3B734",
"1. c #F5BC3D",
"2. c #F7BF3D",
"3. c #FBC12D",
"4. c #F8C032",
"5. c #FAC533",
"6. c #FAC239",
"7. c #F9C23B",
"8. c #FBC63E",
"9. c #F5C839",
"0. c #FCCC3A",
"q. c #FDCD3C",
"w. c #E3AB44",
"e. c #E7B24B",
"r. c #E6B24D",
"t. c #EBB94D",
"y. c #F0BF47",
"u. c #E2B162",
"i. c #E5BA6B",
"p. c #E3B96E",
"a. c #E4BB7C",
"s. c #F7CF43",
"d. c #FCC942",
"f. c #F8C94B",
"g. c #FBCF4B",
"h. c #FED446",
"j. c #FFD946",
"k. c #F5D74F",
"l. c #FCD04B",
"z. c #FDD24D",
"x. c #EAC351",
"c. c #EFC950",
"v. c #F2C658",
"b. c #EFD15E",
"n. c #EFD75F",
"m. c #F5D552",
"M. c #F7D753",
"N. c #FCD352",
"B. c #FEDD56",
"V. c #FCD55A",
"C. c #EDC269",
"Z. c #E8CB6F",
"A. c #F1CB65",
"S. c #F0C868",
"D. c #FCD561",
"F. c #EFCB70",
"G. c #F4D179",
"H. c #F6D679",
"J. c #E7C880",
"K. c #E3C189",
"L. c #E4C68D",
"P. c #E7CD89",
"I. c #EFCE88",
"U. c #EECE8C",
"Y. c #EBD38B",
"T. c #F3D380",
"R. c #F2D388",
"E. c #F4D68E",
"W. c #F4D98B",
"Q. c #F1DE88",
"!. c #F4DD8C",
"~. c #E7C896",
"^. c #E7CE9A",
"/. c #F2DB97",
"(. c #F4DA95",
"). c #F6DF96",
"_. c #FEE484",
"`. c #F4E195",
"'. c #ECD1A0",
"]. c #E9D0A7",
"[. c #E8D1A9",
"{. c #F0D9A7",
"}. c #F3DEA7",
"|. c #ECD9BD",
" X c #EEDFBE",
".X c #F0DCB9",
"XX c #F1DEBA",
"oX c #F3E0A7",
"OX c #F5E0A8",
"+X c #F5E9AF",
"@X c #F8E7B3",
"#X c #F7E9B3",
"$X c #FCEBB2",
"%X c #F3E0B8",
"&X c #F9ECBB",
"*X c #FAEBBF",
"=X c #EEDFC0",
"-X c #F1E0C4",
";X c #F3E4C4",
":X c #FBECC2",
">X c #F8EBC5",
",X c #FAF0C8",
"<X c #F8EDD2",
"1X c #FAF0D1",
"2X c #FBF1D2",
"3X c #FCF3D5",
"4X c #FBF4D7",
"5X c #FCF6DC",
"6X c #FAF6F1",
"7X c #FAF6F2",
"8X c #FBF9F5",
"9X c #FFFDF6",
"0X c #FEFCF7",
"qX c #FFFEF9",
"wX c #FFFFFC",
"eX c gray100",
/* pixels */
"eXeXeXeXeX4X+X`.Q.).*X9XeXeXeXeX",
"eXeXeX5XQ.n.k.m.s.9.@.v.2XeXeXeX",
"eXeX,Xb.M.h.l.g.d.6.7.o.t.<XeXeX",
"eX3Xc.0.f.N.B.0.$.| [ &.-.w.2XeX",
"qXA.%.1.z.j. .+.} h i d D A r.qX",
":X{ <.1.5.z X.` ( E a * q D r XX",
"E.j ^ o.4.x / R ! K 0 3 > B r a.",
"U.D U ) _ W R Y P M 7 r 1 t g u.",
"'.M G s = & 9 Z M 7 O   # / ] C.",
"{.F =.0 # $ 4 6 2 5 @ - u 4.3.R.",
">Xy J C 3 n :   . ; ' } :.V.y..X",
"0Xr.k X.N , o & w p l x.S.G.i.6X",
"eX-XY ;.8.*.H f c >.Z.(.$Xp.=XeX",
"eXeX].,.D._.H.W./.oX}.&XZ.[.eXeX",
"eXeXeX;XF.T.I.@X}.#XY.P.=XeXeXeX",
"eXeXeXeX8XXX~.K.L.^.|.6XeXeXeXeX"
};
