/* XPM */
static char *defcoin__[] = {
/* columns rows colors chars-per-pixel */
"32 32 256 2",
"   c #B74902",
".  c #BA4D05",
"X  c #BD5305",
"o  c #B95D0D",
"O  c #BC5A0A",
"+  c #B85D12",
"@  c #BC6712",
"#  c #C35505",
"$  c #C45B05",
"%  c #CA5C04",
"&  c #C85C09",
"*  c #C15F16",
"=  c #CD6204",
"-  c #C3620C",
";  c #C9670B",
":  c #D26405",
">  c #D66A06",
",  c #DA6C05",
"<  c #D46B0A",
"1  c #D1630A",
"2  c #DF7204",
"3  c #D9790B",
"4  c #C36415",
"5  c #C26C13",
"6  c #C56519",
"7  c #C76818",
"8  c #CC6F19",
"9  c #CB721D",
"0  c #CC7C1D",
"q  c #C87514",
"w  c #D17C17",
"e  c #E37606",
"r  c #E87C04",
"t  c #E67607",
"y  c #C97C23",
"u  c #DF8D0D",
"i  c #D28315",
"p  c #D2851D",
"a  c #D5891E",
"s  c #DB8B1B",
"d  c #DD8416",
"f  c #DB9417",
"g  c #DC921D",
"h  c #DD991C",
"j  c #DE9817",
"k  c #EB850A",
"l  c #E9860C",
"z  c #F08A07",
"x  c #F48907",
"c  c #E9920F",
"v  c #F29009",
"b  c #FA940A",
"n  c #FB9E0B",
"m  c #F0980F",
"M  c #E98916",
"N  c #E08714",
"B  c #F08B10",
"V  c #E2961D",
"C  c #E49A1C",
"Z  c #EB9618",
"A  c #F19E10",
"S  c #DCAA1E",
"D  c #FEA30D",
"F  c #FCB70F",
"G  c #E7A416",
"H  c #E5A21E",
"J  c #ECA318",
"K  c #FEA611",
"L  c #FEAC10",
"P  c #F9A91A",
"I  c #FFB719",
"U  c #FBB818",
"Y  c #CD8421",
"T  c #D38323",
"R  c #D48B21",
"E  c #D98C22",
"W  c #D98A2A",
"Q  c #D38728",
"!  c #DC9324",
"~  c #DD952B",
"^  c #DE9A2B",
"/  c #D79826",
"(  c #D39230",
")  c #DF9130",
"_  c #DB9C35",
"`  c #D99D3C",
"'  c #D49934",
"]  c #E19626",
"[  c #E39C24",
"{  c #E2952A",
"}  c #E29C2A",
"|  c #EC992B",
" . c #E09B30",
".. c #E09F3F",
"X. c #D7A538",
"o. c #E4A322",
"O. c #EAA524",
"+. c #ECAA24",
"@. c #E3A22A",
"#. c #EAA62A",
"$. c #E6AA2D",
"%. c #EDAC2B",
"&. c #E6AA24",
"*. c #F1A422",
"=. c #F2AC25",
"-. c #F0AB2A",
";. c #F2A32D",
":. c #E7B42E",
">. c #EDB12B",
",. c #ECB027",
"<. c #F3B42D",
"1. c #F8B628",
"2. c #F6B92D",
"3. c #F9BD2F",
"4. c #F5B524",
"5. c #E7AB32",
"6. c #EDAD31",
"7. c #E5AA38",
"8. c #E7B230",
"9. c #EDB233",
"0. c #EBB63B",
"q. c #EDBB3C",
"w. c #E2B63F",
"e. c #F3B431",
"r. c #F5BB32",
"t. c #FABD33",
"y. c #F0BD3F",
"u. c #F6AC36",
"i. c #FFC21F",
"p. c #FFC627",
"a. c #FFC82F",
"s. c #EDC239",
"d. c #F6C237",
"f. c #FCC333",
"g. c #FBC53B",
"h. c #FECB3B",
"j. c #FBC63A",
"k. c #FFD133",
"l. c #FED03D",
"z. c #D29946",
"x. c #DAAC4C",
"c. c #D9A24A",
"v. c #DCAB54",
"b. c #DEAF5A",
"n. c #D0AF54",
"m. c #DDB15B",
"M. c #D4B75F",
"N. c #E2AE42",
"B. c #E0A649",
"V. c #E6AC4A",
"C. c #EBB642",
"Z. c #E4BB43",
"A. c #ECB944",
"S. c #EFB748",
"D. c #E6B84B",
"F. c #F3B642",
"G. c #F0BE46",
"H. c #E0AE57",
"J. c #E5B95A",
"K. c #DEB76F",
"L. c #DAB565",
"P. c #E4B765",
"I. c #E1BD7B",
"U. c #EACF4E",
"Y. c #F4C343",
"T. c #FDCA40",
"R. c #F6C846",
"E. c #FCD344",
"W. c #F3D64D",
"Q. c #FFD24C",
"!. c #FEDB4A",
"~. c #F5D54A",
"^. c #E7C755",
"/. c #E3CA5A",
"(. c #E5C653",
"). c #F4C552",
"_. c #F2CB55",
"`. c #F5CA57",
"'. c #FBD351",
"]. c #FDDD56",
"[. c #FDD358",
"{. c #FDD958",
"}. c #F7D35F",
"|. c #FFE04F",
" X c #FFE253",
".X c #E6CF69",
"XX c #F3CE66",
"oX c #FEDB63",
"OX c #FAD66D",
"+X c #F6D667",
"@X c #EAC174",
"#X c #EECC75",
"$X c #E7C77C",
"%X c #F2CD72",
"&X c #E4D074",
"*X c #EBD57B",
"=X c #F4D67B",
"-X c #F8DA7D",
";X c #F6D976",
":X c #FDE261",
">X c #FDE667",
",X c #FCE371",
"<X c #FFE079",
"1X c #DFBD8A",
"2X c #ECCB86",
"3X c #EDD488",
"4X c #F9DB84",
"5X c #F3DA8C",
"6X c #F3D689",
"7X c #E1C69B",
"8X c #E5CB9A",
"9X c #EDD493",
"0X c #EDD49B",
"qX c #ECD99C",
"wX c #EED994",
"eX c #F6DB94",
"rX c #F3DA9A",
"tX c #FFE785",
"yX c #FCE189",
"uX c #FAE696",
"iX c #E3CDA4",
"pX c #E4CFAA",
"aX c #E8D0A4",
"sX c #EFDCA8",
"dX c #F0DBA1",
"fX c #E8D6B7",
"gX c #FDEDA6",
"hX c #F5E2AA",
"jX c #FBE6AC",
"kX c #FDEBAB",
"lX c #FDE6A3",
"zX c #F7ECBC",
"xX c #F9E9B5",
"cX c #FFF3BC",
"vX c #EBDDC7",
"bX c #F0DEC0",
"nX c #EBE1CF",
"mX c #F8EBC5",
"MX c #FCF1C3",
"NX c #FDF4CC",
"BX c LemonChiffon",
"VX c #F1E7D4",
"CX c #FAEED0",
"ZX c #FCF2D5",
"AX c #FEFCD4",
"SX c #FEF5DB",
"DX c #FFFFDB",
"FX c #F3EEE4",
"GX c #F3EFE9",
"HX c #FDF5E3",
"JX c #FFF8E7",
"KX c #FAF6EC",
"LX c #FEF9EB",
"PX c #F6F5F2",
"IX c #FDFAF5",
"UX c #FFFFFF",
/* pixels */
"UXUXUXUXUXUXUXUXUXUXUXIXJXAXNXMXcXMXNXHXUXUXUXUXUXUXUXUXUXUXUXUX",
"UXUXUXUXUXUXUXUXUXKXMXkX5X*X.X/.(.(.^.`.OXlXHXUXUXUXUXUXUXUXUXUX",
"UXUXUXUXUXUXUXLXcXuX&X/.U.W.W.].!.E.R.s.:.:.).uXLXUXUXUXUXUXUXUX",
"UXUXUXUXUXUXSXgX&X(.W.:X:X!. X;XW.l.'.h.h.f.&.9.4XZXUXUXUXUXUXUX",
"UXUXUXUXUXNXuX(.W.|.!.{.OXh.E._.Y.f.Y.t.f.T.g.<.N.rXZXUXUXUXUXUX",
"UXUXUXUXNX4XZ.~.,X+Xh.l.Y.g.h.R.h.g.r.t.t.G.C.<.=.X.qXCXUXUXUXUX",
"UXUXUXSX*XZ.l.l.+X`.f.h.{.>X X].Q.h.f.t.e.9.6.-.F.F._ 5XZXUXUXUX",
"UXUXIXyXZ.h.Q.f.f.t.[.,X>X!.k.i.I L L K P *.#.#.@XV.V _ =XKXUXUX",
"UXUXkXZ.2.g.`.g.t.oX>X|.k.U J H +.J v b b v c [  .V { E @.uXUXUX",
"UXKXXX$.3.t.2.e.+X Xk.p.P &.d.h.f.3.%.Z x k r d ! ~ 7.@.p q.FXUX",
"UXkX:.<.g.r.=.).!.i.I L o.j.t.1.<.e.<.<.l e e > w ~ 5.^ p f rXUX",
"UXOXo.r.y.0.u.Q.4.,.K m 2.t.B N <.M 3 <.[ > : = = p R E s i H.UX",
"JXY.o.%.$.@.S.1.+.E.=.m r.2.C ! <.C g %.[ 1 5 R - 5 ! E ~ p ( SX",
"CXZ.] O.[ | F.A ,.h.J N -.] >.-.#.%.#.T ] $ 5 [ 7 O ] ~ ! g Y bX",
"mXV.! S.V.} u.J j.r.3.#.%.V [ -.O.O.} Y Q @ a ! a o g [ [ H i pX",
"MXP.g _ _  .;.z *.M Z #.#.O.s [ } ( y ! ! { y 9 W + g O.=.+.f 8X",
"ZXK.d V d ~ | r e 2 , , d #.o.a Y Y ! { T 6 . . & X C %.5.,.H 0X",
"ZXI.i z.B.~ { e 2 > ; = : 1 a ] [ E y *     # # : ; +.<.9.<.%.sX",
"SX@Xp J.P.~ { 1 = $ = = $ @ Y T T ! 0 O . # % : t i 2.f.f.f.e.mX",
"KX#XT ~ ^ E  .1 O q - @ a } W 6 . 7 E [ s ; q d x g h.h.h.g.w.FX",
"UX=X/ s V [ @.9 - [ E ^ W 6 . . . . & M ;.%.>.t.N 0.Q.0.).Y.J.UX",
"UXhX&.g #.$.O.} O 0 ! 9 .   . . $ : 2 t B <.j.G X.oXoXoXOX5.7XUX",
"UXKXC.j +.O.=.1.p o ^ 7   # # % , e k b n d.h./ +X_.OXuX%X' FXUX",
"UXUX0Xj +.1.<.<.r.a 8 1 : > 2 e k b n L F U x.*XyXc.H.kX` 1XUXUX",
"UXUXIXb.f f.%.^ <.h.[ 3 r x b b D F F F S n.yXgXkXeXhXP.z.PXUXUX",
"UXUXUXVX( H g.0.R.Q.'._.w.^ C G G S X.M.qXcXwX@XcXAX9X( nXUXUXUX",
"UXUXUXUXfXW 5.{.oX[.`.<XtX4X6X3XwXdXxXjX3XzXMX2XMX0X' pXUXUXUXUX",
"UXUXUXUXUXfXX.0.-XOX4XuX4XJ.6XcX6XkXBX2Xm.hXAXAX2XX.fXUXUXUXUXUX",
"UXUXUXUXUXUXVXJ.q.=XkXcXeXP.hXAX@X0XAXMXdXBXhXm.m.nXUXUXUXUXUXUX",
"UXUXUXUXUXUXUXIX0XA.C.$XsXzXAXAXmXNXNXzXwXm.n.8XPXUXUXUXUXUXUXUX",
"UXUXUXUXUXUXUXUXUXGXiXb.` ` c.v.b.n.x.x.L.iXFXUXUXUXUXUXUXUXUXUX",
"UXUXUXUXUXUXUXUXUXUXUXIXFXvXiX7X7XpXvXFXUXUXUXUXUXUXUXUXUXUXUXUX"
};
